# xmcd
#
# Track frame offsets: 
#        182
#        4437
#        17842
#        36107
#        47320
#        66387
#        93167
#        106957
#        124675
#        139902
#        153555
#        162375
#        177260
#        188927
#        203907
#        221675
#
# Disc length: 3142 seconds
#
# Revision: 0
# Processed by: cddbd v1.5.2PL0 Copyright (c) Steve Scherf et al.
# Submitted via: ExactAudioCopy v0.95b4
#
DISCID=e10c4410
DTITLE=Hilltops - Big Black River
DYEAR=1991
DGENRE=Country
TTITLE0=Breakdown
TTITLE1=Sidewalk
TTITLE2=Strange Love
TTITLE3=I'd Like To See You
TTITLE4=Dead End Street
TTITLE5=Big Black River
TTITLE6=Old House
TTITLE7=Broke Down And Busted
TTITLE8=Slow Suicide
TTITLE9=900 Miles
TTITLE10=I Might Be The Last One
TTITLE11=Judgement Day
TTITLE12=Walk A Mile
TTITLE13=Seafoam Green
TTITLE14=One More Time
TTITLE15=Blue
EXTD=
EXTT0=
EXTT1=
EXTT2=
EXTT3=
EXTT4=
EXTT5=
EXTT6=
EXTT7=
EXTT8=
EXTT9=
EXTT10=
EXTT11=
EXTT12=
EXTT13=
EXTT14=
EXTT15=
PLAYORDER=
